<?xml version="1.0" encoding="iso-8859-1"?>
<!-- Generator: Adobe Illustrator 19.0.0, SVG Export Plug-In . SVG Version: 6.00 Build 0)  -->
<svg version="1.1" id="Capa_1" xmlns="http://www.w3.org/2000/svg" xmlns:xlink="http://www.w3.org/1999/xlink" x="0px" y="0px"
	 viewBox="0 0 215.04 215.04" style="enable-background:new 0 0 215.04 215.04;" xml:space="preserve">
<path style="fill:#26BBEC;" d="M42.667,121.173c-21.644,0-39.253-17.608-39.253-39.253s17.609-39.253,39.253-39.253
	S81.92,60.274,81.92,81.92S64.311,121.173,42.667,121.173z M42.667,56.32c-14.116,0-25.6,11.484-25.6,25.6s11.484,25.6,25.6,25.6
	s25.6-11.484,25.6-25.6S56.783,56.32,42.667,56.32z"/>
<path d="M42.667,124.587C19.14,124.587,0,105.446,0,81.92s19.14-42.667,42.667-42.667s42.667,19.14,42.667,42.667
	S66.193,124.587,42.667,124.587z M42.667,46.08c-19.761,0-35.84,16.077-35.84,35.84s16.079,35.84,35.84,35.84
	s35.84-16.077,35.84-35.84S62.428,46.08,42.667,46.08z M42.667,110.933c-15.998,0-29.013-13.015-29.013-29.013
	s13.015-29.013,29.013-29.013S71.68,65.922,71.68,81.92S58.665,110.933,42.667,110.933z M42.667,59.733
	c-12.233,0-22.187,9.953-22.187,22.187s9.953,22.187,22.187,22.187s22.187-9.953,22.187-22.187S54.9,59.733,42.667,59.733z"/>
<path style="fill:#595959;" d="M107.52,121.173c-21.644,0-39.253-17.608-39.253-39.253s17.609-39.253,39.253-39.253
	s39.253,17.608,39.253,39.253S129.164,121.173,107.52,121.173z M107.52,56.32c-14.116,0-25.6,11.484-25.6,25.6
	s11.484,25.6,25.6,25.6s25.6-11.484,25.6-25.6S121.636,56.32,107.52,56.32z"/>
<path d="M107.52,124.587c-23.526,0-42.667-19.14-42.667-42.667s19.14-42.667,42.667-42.667s42.667,19.14,42.667,42.667
	S131.046,124.587,107.52,124.587z M107.52,46.08c-19.761,0-35.84,16.077-35.84,35.84s16.079,35.84,35.84,35.84
	s35.84-16.077,35.84-35.84S127.281,46.08,107.52,46.08z M107.52,110.933c-15.998,0-29.013-13.015-29.013-29.013
	s13.015-29.013,29.013-29.013s29.013,13.015,29.013,29.013S123.518,110.933,107.52,110.933z M107.52,59.733
	c-12.233,0-22.187,9.953-22.187,22.187s9.953,22.187,22.187,22.187s22.187-9.953,22.187-22.187S119.753,59.733,107.52,59.733z"/>
<path style="fill:#FCAD3A;" d="M76.8,172.373c-21.644,0-39.253-17.608-39.253-39.253S55.156,93.867,76.8,93.867
	s39.253,17.608,39.253,39.253S98.444,172.373,76.8,172.373z M76.8,107.52c-14.116,0-25.6,11.484-25.6,25.6s11.484,25.6,25.6,25.6
	s25.6-11.484,25.6-25.6S90.916,107.52,76.8,107.52z"/>
<path d="M76.8,175.787c-23.526,0-42.667-19.14-42.667-42.667S53.274,90.453,76.8,90.453s42.667,19.14,42.667,42.667
	S100.326,175.787,76.8,175.787z M76.8,97.28c-19.761,0-35.84,16.077-35.84,35.84s16.079,35.84,35.84,35.84s35.84-16.077,35.84-35.84
	S96.561,97.28,76.8,97.28z M76.8,162.133c-15.998,0-29.013-13.015-29.013-29.013s13.015-29.013,29.013-29.013
	s29.013,13.015,29.013,29.013S92.798,162.133,76.8,162.133z M76.8,110.933c-12.233,0-22.187,9.953-22.187,22.187
	s9.953,22.187,22.187,22.187s22.187-9.953,22.187-22.187S89.033,110.933,76.8,110.933z"/>
<path style="fill:#EE5281;" d="M172.373,121.173c-21.644,0-39.253-17.608-39.253-39.253s17.609-39.253,39.253-39.253
	s39.253,17.608,39.253,39.253S194.017,121.173,172.373,121.173z M172.373,56.32c-14.116,0-25.6,11.484-25.6,25.6
	s11.484,25.6,25.6,25.6s25.6-11.484,25.6-25.6S186.489,56.32,172.373,56.32z"/>
<path d="M172.373,124.587c-23.526,0-42.667-19.14-42.667-42.667s19.14-42.667,42.667-42.667s42.667,19.14,42.667,42.667
	S195.9,124.587,172.373,124.587z M172.373,46.08c-19.761,0-35.84,16.077-35.84,35.84s16.079,35.84,35.84,35.84
	s35.84-16.077,35.84-35.84S192.135,46.08,172.373,46.08z M172.373,110.933c-15.998,0-29.013-13.015-29.013-29.013
	s13.015-29.013,29.013-29.013s29.013,13.015,29.013,29.013S188.372,110.933,172.373,110.933z M172.373,59.733
	c-12.233,0-22.187,9.953-22.187,22.187s9.953,22.187,22.187,22.187s22.187-9.953,22.187-22.187S184.607,59.733,172.373,59.733z"/>
<path style="fill:#83D816;" d="M141.653,172.373c-21.644,0-39.253-17.608-39.253-39.253s17.609-39.253,39.253-39.253
	s39.253,17.608,39.253,39.253S163.297,172.373,141.653,172.373z M141.653,107.52c-14.116,0-25.6,11.484-25.6,25.6
	s11.484,25.6,25.6,25.6s25.6-11.484,25.6-25.6S155.769,107.52,141.653,107.52z"/>
<path d="M141.653,175.787c-23.526,0-42.667-19.14-42.667-42.667s19.14-42.667,42.667-42.667s42.667,19.14,42.667,42.667
	S165.18,175.787,141.653,175.787z M141.653,97.28c-19.761,0-35.84,16.077-35.84,35.84s16.079,35.84,35.84,35.84
	s35.84-16.077,35.84-35.84S161.415,97.28,141.653,97.28z M141.653,162.133c-15.998,0-29.013-13.015-29.013-29.013
	s13.015-29.013,29.013-29.013s29.013,13.015,29.013,29.013S157.652,162.133,141.653,162.133z M141.653,110.933
	c-12.233,0-22.187,9.953-22.187,22.187s9.953,22.187,22.187,22.187s22.187-9.953,22.187-22.187S153.887,110.933,141.653,110.933z"/>
<g>
</g>
<g>
</g>
<g>
</g>
<g>
</g>
<g>
</g>
<g>
</g>
<g>
</g>
<g>
</g>
<g>
</g>
<g>
</g>
<g>
</g>
<g>
</g>
<g>
</g>
<g>
</g>
<g>
</g>
</svg>
